<?xml version="1.0" encoding="UTF-8" standalone="no"?>
<!DOCTYPE svg PUBLIC "-//W3C//DTD SVG 1.0//EN"
 "http://www.w3.org/TR/2001/REC-SVG-20010904/DTD/svg10.dtd" [
 <!ATTLIST svg xmlns:xlink CDATA #FIXED "http://www.w3.org/1999/xlink">
]>
<!-- Generated by dot version 2.6 (Sun Aug 28 13:14:52 UTC 2005)
     For user: Bill Gates -->
<!-- Title: structs Pages: 1 -->
<svg width="591pt" height="902pt"
 viewBox = "0 0 591 902"
 xmlns="http://www.w3.org/2000/svg" xmlns:xlink="http://www.w3.org/1999/xlink">
<g id="graph0" class="graph" style="font-family:Times-Roman;font-size:14.00;">
<title>structs</title>
<!-- el4 -->
<g id="node1" class="node"><title>el4</title>
<polygon style="fill:none;stroke:black;" points="5,85 170,85 170,5 5,5 5,85"/>
<text text-anchor="middle" x="47" y="22">pos:</text>
<text text-anchor="middle" x="47" y="38"> 0</text>
<polyline style="fill:none;stroke:black;" points="89,45 89,5 "/>
<text text-anchor="middle" x="129" y="22">ind:</text>
<text text-anchor="middle" x="129" y="38"> 4</text>
<polyline style="fill:none;stroke:black;" points="5,45 170,45 "/>
<text text-anchor="middle" x="28" y="62">prev:</text>
<text text-anchor="middle" x="28" y="78"> 0</text>
<polyline style="fill:none;stroke:black;" points="51,85 51,45 "/>
<text text-anchor="middle" x="88" y="62">value:</text>
<text text-anchor="middle" x="88" y="78"> 4.000000</text>
<polyline style="fill:none;stroke:black;" points="125,85 125,45 "/>
<text text-anchor="middle" x="147" y="62">next:</text>
<text text-anchor="middle" x="147" y="78"> 1</text>
</g>
<!-- el1 -->
<g id="node2" class="node"><title>el1</title>
<polygon style="fill:none;stroke:black;" points="64,201 229,201 229,121 64,121 64,201"/>
<text text-anchor="middle" x="106" y="138">pos:</text>
<text text-anchor="middle" x="106" y="154"> 1</text>
<polyline style="fill:none;stroke:black;" points="148,161 148,121 "/>
<text text-anchor="middle" x="188" y="138">ind:</text>
<text text-anchor="middle" x="188" y="154"> 1</text>
<polyline style="fill:none;stroke:black;" points="64,161 229,161 "/>
<text text-anchor="middle" x="87" y="178">prev:</text>
<text text-anchor="middle" x="87" y="194"> 4</text>
<polyline style="fill:none;stroke:black;" points="110,201 110,161 "/>
<text text-anchor="middle" x="147" y="178">value:</text>
<text text-anchor="middle" x="147" y="194"> 1.000000</text>
<polyline style="fill:none;stroke:black;" points="184,201 184,161 "/>
<text text-anchor="middle" x="206" y="178">next:</text>
<text text-anchor="middle" x="206" y="194"> 7</text>
</g>
<!-- el4&#45;&gt;el1 -->
<g id="edge2" class="edge"><title>el4&#45;&gt;el1</title>
<path style="fill:none;stroke:red;" d="M147,85C147,93 146,102 146,111"/>
<polygon style="fill:red;stroke:red;" points="150,111 146,121 143,111 150,111"/>
</g>
<!-- el1&#45;&gt;el4 -->
<g id="edge6" class="edge"><title>el1&#45;&gt;el4</title>
<path style="fill:none;stroke:blue;" d="M87,161C87,144 87,118 87,95"/>
<polygon style="fill:blue;stroke:blue;" points="84,95 87,85 91,95 84,95"/>
</g>
<!-- el7 -->
<g id="node3" class="node"><title>el7</title>
<polygon style="fill:none;stroke:black;" points="122,317 291,317 291,237 122,237 122,317"/>
<text text-anchor="middle" x="165" y="254">pos:</text>
<text text-anchor="middle" x="165" y="270"> 2</text>
<polyline style="fill:none;stroke:black;" points="208,277 208,237 "/>
<text text-anchor="middle" x="249" y="254">ind:</text>
<text text-anchor="middle" x="249" y="270"> 7</text>
<polyline style="fill:none;stroke:black;" points="122,277 291,277 "/>
<text text-anchor="middle" x="145" y="294">prev:</text>
<text text-anchor="middle" x="145" y="310"> 1</text>
<polyline style="fill:none;stroke:black;" points="168,317 168,277 "/>
<text text-anchor="middle" x="207" y="294">value:</text>
<text text-anchor="middle" x="207" y="310"> &#45;1.000000</text>
<polyline style="fill:none;stroke:black;" points="246,317 246,277 "/>
<text text-anchor="middle" x="268" y="294">next:</text>
<text text-anchor="middle" x="268" y="310"> 8</text>
</g>
<!-- el1&#45;&gt;el7 -->
<g id="edge4" class="edge"><title>el1&#45;&gt;el7</title>
<path style="fill:none;stroke:red;" d="M206,201C206,209 206,218 206,227"/>
<polygon style="fill:red;stroke:red;" points="210,227 206,237 203,227 210,227"/>
</g>
<!-- el7&#45;&gt;el1 -->
<g id="edge10" class="edge"><title>el7&#45;&gt;el1</title>
<path style="fill:none;stroke:blue;" d="M145,277C145,260 145,234 146,211"/>
<polygon style="fill:blue;stroke:blue;" points="143,211 146,201 150,211 143,211"/>
</g>
<!-- el8 -->
<g id="node4" class="node"><title>el8</title>
<polygon style="fill:none;stroke:black;" points="184,433 349,433 349,353 184,353 184,433"/>
<text text-anchor="middle" x="226" y="370">pos:</text>
<text text-anchor="middle" x="226" y="386"> 3</text>
<polyline style="fill:none;stroke:black;" points="268,393 268,353 "/>
<text text-anchor="middle" x="308" y="370">ind:</text>
<text text-anchor="middle" x="308" y="386"> 8</text>
<polyline style="fill:none;stroke:black;" points="184,393 349,393 "/>
<text text-anchor="middle" x="207" y="410">prev:</text>
<text text-anchor="middle" x="207" y="426"> 7</text>
<polyline style="fill:none;stroke:black;" points="230,433 230,393 "/>
<text text-anchor="middle" x="267" y="410">value:</text>
<text text-anchor="middle" x="267" y="426"> 1.000000</text>
<polyline style="fill:none;stroke:black;" points="304,433 304,393 "/>
<text text-anchor="middle" x="326" y="410">next:</text>
<text text-anchor="middle" x="326" y="426"> 2</text>
</g>
<!-- el7&#45;&gt;el8 -->
<g id="edge8" class="edge"><title>el7&#45;&gt;el8</title>
<path style="fill:none;stroke:red;" d="M268,317C268,325 267,334 267,343"/>
<polygon style="fill:red;stroke:red;" points="271,343 267,353 264,343 271,343"/>
</g>
<!-- el8&#45;&gt;el7 -->
<g id="edge14" class="edge"><title>el8&#45;&gt;el7</title>
<path style="fill:none;stroke:blue;" d="M207,393C207,376 207,350 206,327"/>
<polygon style="fill:blue;stroke:blue;" points="203,327 206,317 210,327 203,327"/>
</g>
<!-- el2 -->
<g id="node5" class="node"><title>el2</title>
<polygon style="fill:none;stroke:black;" points="243,549 408,549 408,469 243,469 243,549"/>
<text text-anchor="middle" x="285" y="486">pos:</text>
<text text-anchor="middle" x="285" y="502"> 4</text>
<polyline style="fill:none;stroke:black;" points="327,509 327,469 "/>
<text text-anchor="middle" x="367" y="486">ind:</text>
<text text-anchor="middle" x="367" y="502"> 2</text>
<polyline style="fill:none;stroke:black;" points="243,509 408,509 "/>
<text text-anchor="middle" x="266" y="526">prev:</text>
<text text-anchor="middle" x="266" y="542"> 8</text>
<polyline style="fill:none;stroke:black;" points="289,549 289,509 "/>
<text text-anchor="middle" x="326" y="526">value:</text>
<text text-anchor="middle" x="326" y="542"> 2.000000</text>
<polyline style="fill:none;stroke:black;" points="363,549 363,509 "/>
<text text-anchor="middle" x="385" y="526">next:</text>
<text text-anchor="middle" x="385" y="542"> 6</text>
</g>
<!-- el8&#45;&gt;el2 -->
<g id="edge12" class="edge"><title>el8&#45;&gt;el2</title>
<path style="fill:none;stroke:red;" d="M326,433C326,441 325,450 325,459"/>
<polygon style="fill:red;stroke:red;" points="329,459 325,469 322,459 329,459"/>
</g>
<!-- el2&#45;&gt;el8 -->
<g id="edge18" class="edge"><title>el2&#45;&gt;el8</title>
<path style="fill:none;stroke:blue;" d="M266,509C266,492 266,466 266,443"/>
<polygon style="fill:blue;stroke:blue;" points="263,443 266,433 270,443 263,443"/>
</g>
<!-- el6 -->
<g id="node6" class="node"><title>el6</title>
<polygon style="fill:none;stroke:black;" points="302,665 467,665 467,585 302,585 302,665"/>
<text text-anchor="middle" x="344" y="602">pos:</text>
<text text-anchor="middle" x="344" y="618"> 5</text>
<polyline style="fill:none;stroke:black;" points="386,625 386,585 "/>
<text text-anchor="middle" x="426" y="602">ind:</text>
<text text-anchor="middle" x="426" y="618"> 6</text>
<polyline style="fill:none;stroke:black;" points="302,625 467,625 "/>
<text text-anchor="middle" x="325" y="642">prev:</text>
<text text-anchor="middle" x="325" y="658"> 2</text>
<polyline style="fill:none;stroke:black;" points="348,665 348,625 "/>
<text text-anchor="middle" x="385" y="642">value:</text>
<text text-anchor="middle" x="385" y="658"> 1.000000</text>
<polyline style="fill:none;stroke:black;" points="422,665 422,625 "/>
<text text-anchor="middle" x="444" y="642">next:</text>
<text text-anchor="middle" x="444" y="658"> 5</text>
</g>
<!-- el2&#45;&gt;el6 -->
<g id="edge16" class="edge"><title>el2&#45;&gt;el6</title>
<path style="fill:none;stroke:red;" d="M385,549C385,557 384,566 384,575"/>
<polygon style="fill:red;stroke:red;" points="388,575 384,585 381,575 388,575"/>
</g>
<!-- el6&#45;&gt;el2 -->
<g id="edge22" class="edge"><title>el6&#45;&gt;el2</title>
<path style="fill:none;stroke:blue;" d="M325,625C325,608 325,582 325,559"/>
<polygon style="fill:blue;stroke:blue;" points="322,559 325,549 329,559 322,559"/>
</g>
<!-- el5 -->
<g id="node7" class="node"><title>el5</title>
<polygon style="fill:none;stroke:black;" points="360,781 529,781 529,701 360,701 360,781"/>
<text text-anchor="middle" x="403" y="718">pos:</text>
<text text-anchor="middle" x="403" y="734"> 6</text>
<polyline style="fill:none;stroke:black;" points="446,741 446,701 "/>
<text text-anchor="middle" x="487" y="718">ind:</text>
<text text-anchor="middle" x="487" y="734"> 5</text>
<polyline style="fill:none;stroke:black;" points="360,741 529,741 "/>
<text text-anchor="middle" x="383" y="758">prev:</text>
<text text-anchor="middle" x="383" y="774"> 6</text>
<polyline style="fill:none;stroke:black;" points="406,781 406,741 "/>
<text text-anchor="middle" x="445" y="758">value:</text>
<text text-anchor="middle" x="445" y="774"> &#45;1.000000</text>
<polyline style="fill:none;stroke:black;" points="484,781 484,741 "/>
<text text-anchor="middle" x="506" y="758">next:</text>
<text text-anchor="middle" x="506" y="774"> 3</text>
</g>
<!-- el6&#45;&gt;el5 -->
<g id="edge20" class="edge"><title>el6&#45;&gt;el5</title>
<path style="fill:none;stroke:red;" d="M444,665C444,673 444,682 444,691"/>
<polygon style="fill:red;stroke:red;" points="448,691 444,701 441,691 448,691"/>
</g>
<!-- el5&#45;&gt;el6 -->
<g id="edge26" class="edge"><title>el5&#45;&gt;el6</title>
<path style="fill:none;stroke:blue;" d="M383,741C383,724 383,698 384,675"/>
<polygon style="fill:blue;stroke:blue;" points="381,675 384,665 388,675 381,675"/>
</g>
<!-- el3 -->
<g id="node8" class="node"><title>el3</title>
<polygon style="fill:none;stroke:black;" points="422,897 587,897 587,817 422,817 422,897"/>
<text text-anchor="middle" x="464" y="834">pos:</text>
<text text-anchor="middle" x="464" y="850"> 7</text>
<polyline style="fill:none;stroke:black;" points="506,857 506,817 "/>
<text text-anchor="middle" x="546" y="834">ind:</text>
<text text-anchor="middle" x="546" y="850"> 3</text>
<polyline style="fill:none;stroke:black;" points="422,857 587,857 "/>
<text text-anchor="middle" x="445" y="874">prev:</text>
<text text-anchor="middle" x="445" y="890"> 5</text>
<polyline style="fill:none;stroke:black;" points="468,897 468,857 "/>
<text text-anchor="middle" x="505" y="874">value:</text>
<text text-anchor="middle" x="505" y="890"> 6.000000</text>
<polyline style="fill:none;stroke:black;" points="542,897 542,857 "/>
<text text-anchor="middle" x="564" y="874">next:</text>
<text text-anchor="middle" x="564" y="890"> 0</text>
</g>
<!-- el5&#45;&gt;el3 -->
<g id="edge24" class="edge"><title>el5&#45;&gt;el3</title>
<path style="fill:none;stroke:red;" d="M506,781C506,789 505,798 505,807"/>
<polygon style="fill:red;stroke:red;" points="509,807 505,817 502,807 509,807"/>
</g>
<!-- el3&#45;&gt;el5 -->
<g id="edge28" class="edge"><title>el3&#45;&gt;el5</title>
<path style="fill:none;stroke:blue;" d="M445,857C445,840 445,814 444,791"/>
<polygon style="fill:blue;stroke:blue;" points="441,791 444,781 448,791 441,791"/>
</g>
</g>
</svg>
