<?xml version="1.0" encoding="UTF-8" standalone="no"?>
<!DOCTYPE svg PUBLIC "-//W3C//DTD SVG 1.0//EN"
 "http://www.w3.org/TR/2001/REC-SVG-20010904/DTD/svg10.dtd" [
 <!ATTLIST svg xmlns:xlink CDATA #FIXED "http://www.w3.org/1999/xlink">
]>
<!-- Generated by dot version 2.6 (Sun Aug 28 13:14:52 UTC 2005)
     For user: Bill Gates -->
<!-- Title: structs Pages: 1 -->
<svg width="802pt" height="646pt"
 viewBox = "0 0 802 646"
 xmlns="http://www.w3.org/2000/svg" xmlns:xlink="http://www.w3.org/1999/xlink">
<g id="graph0" class="graph" style="font-family:Times-Roman;font-size:14.00;">
<title>structs</title>
<!-- el7 -->
<g id="node1" class="node"><title>el7</title>
<polygon style="fill:none;stroke:black;" points="5,53 223,53 223,5 5,5 5,53"/>
<text text-anchor="middle" x="60" y="22">pos: 0</text>
<polyline style="fill:none;stroke:black;" points="115,29 115,5 "/>
<text text-anchor="middle" x="169" y="22">ind: 7</text>
<polyline style="fill:none;stroke:black;" points="5,29 223,29 "/>
<text text-anchor="middle" x="33" y="46">prev: 0</text>
<polyline style="fill:none;stroke:black;" points="61,53 61,29 "/>
<text text-anchor="middle" x="114" y="46">value: 9.000000</text>
<polyline style="fill:none;stroke:black;" points="168,53 168,29 "/>
<text text-anchor="middle" x="195" y="46">next: 4</text>
</g>
<!-- el4 -->
<g id="node2" class="node"><title>el4</title>
<polygon style="fill:none;stroke:black;" points="86,137 304,137 304,89 86,89 86,137"/>
<text text-anchor="middle" x="141" y="106">pos: 1</text>
<polyline style="fill:none;stroke:black;" points="196,113 196,89 "/>
<text text-anchor="middle" x="250" y="106">ind: 4</text>
<polyline style="fill:none;stroke:black;" points="86,113 304,113 "/>
<text text-anchor="middle" x="114" y="130">prev: 7</text>
<polyline style="fill:none;stroke:black;" points="142,137 142,113 "/>
<text text-anchor="middle" x="195" y="130">value: 6.000000</text>
<polyline style="fill:none;stroke:black;" points="249,137 249,113 "/>
<text text-anchor="middle" x="276" y="130">next: 6</text>
</g>
<!-- el7&#45;&gt;el4 -->
<g id="edge2" class="edge"><title>el7&#45;&gt;el4</title>
<path style="fill:none;stroke:red;" d="M195,53C195,60 195,70 195,79"/>
<polygon style="fill:red;stroke:red;" points="199,79 195,89 192,79 199,79"/>
</g>
<!-- el4&#45;&gt;el7 -->
<g id="edge6" class="edge"><title>el4&#45;&gt;el7</title>
<path style="fill:none;stroke:blue;" d="M114,113C114,101 114,81 114,63"/>
<polygon style="fill:blue;stroke:blue;" points="111,63 114,53 118,63 111,63"/>
</g>
<!-- el6 -->
<g id="node3" class="node"><title>el6</title>
<polygon style="fill:none;stroke:black;" points="167,221 385,221 385,173 167,173 167,221"/>
<text text-anchor="middle" x="222" y="190">pos: 2</text>
<polyline style="fill:none;stroke:black;" points="277,197 277,173 "/>
<text text-anchor="middle" x="331" y="190">ind: 6</text>
<polyline style="fill:none;stroke:black;" points="167,197 385,197 "/>
<text text-anchor="middle" x="195" y="214">prev: 4</text>
<polyline style="fill:none;stroke:black;" points="223,221 223,197 "/>
<text text-anchor="middle" x="276" y="214">value: 8.000000</text>
<polyline style="fill:none;stroke:black;" points="330,221 330,197 "/>
<text text-anchor="middle" x="357" y="214">next: 2</text>
</g>
<!-- el4&#45;&gt;el6 -->
<g id="edge4" class="edge"><title>el4&#45;&gt;el6</title>
<path style="fill:none;stroke:red;" d="M276,137C276,144 276,154 276,163"/>
<polygon style="fill:red;stroke:red;" points="280,163 276,173 273,163 280,163"/>
</g>
<!-- el6&#45;&gt;el4 -->
<g id="edge10" class="edge"><title>el6&#45;&gt;el4</title>
<path style="fill:none;stroke:blue;" d="M195,197C195,185 195,165 195,147"/>
<polygon style="fill:blue;stroke:blue;" points="192,147 195,137 199,147 192,147"/>
</g>
<!-- el2 -->
<g id="node4" class="node"><title>el2</title>
<polygon style="fill:none;stroke:black;" points="248,305 466,305 466,257 248,257 248,305"/>
<text text-anchor="middle" x="303" y="274">pos: 3</text>
<polyline style="fill:none;stroke:black;" points="358,281 358,257 "/>
<text text-anchor="middle" x="412" y="274">ind: 2</text>
<polyline style="fill:none;stroke:black;" points="248,281 466,281 "/>
<text text-anchor="middle" x="276" y="298">prev: 6</text>
<polyline style="fill:none;stroke:black;" points="304,305 304,281 "/>
<text text-anchor="middle" x="357" y="298">value: 2.000000</text>
<polyline style="fill:none;stroke:black;" points="411,305 411,281 "/>
<text text-anchor="middle" x="438" y="298">next: 3</text>
</g>
<!-- el6&#45;&gt;el2 -->
<g id="edge8" class="edge"><title>el6&#45;&gt;el2</title>
<path style="fill:none;stroke:red;" d="M357,221C357,228 357,238 357,247"/>
<polygon style="fill:red;stroke:red;" points="361,247 357,257 354,247 361,247"/>
</g>
<!-- el2&#45;&gt;el6 -->
<g id="edge14" class="edge"><title>el2&#45;&gt;el6</title>
<path style="fill:none;stroke:blue;" d="M276,281C276,269 276,249 276,231"/>
<polygon style="fill:blue;stroke:blue;" points="273,231 276,221 280,231 273,231"/>
</g>
<!-- el3 -->
<g id="node5" class="node"><title>el3</title>
<polygon style="fill:none;stroke:black;" points="329,389 547,389 547,341 329,341 329,389"/>
<text text-anchor="middle" x="384" y="358">pos: 4</text>
<polyline style="fill:none;stroke:black;" points="439,365 439,341 "/>
<text text-anchor="middle" x="493" y="358">ind: 3</text>
<polyline style="fill:none;stroke:black;" points="329,365 547,365 "/>
<text text-anchor="middle" x="357" y="382">prev: 2</text>
<polyline style="fill:none;stroke:black;" points="385,389 385,365 "/>
<text text-anchor="middle" x="438" y="382">value: 5.000000</text>
<polyline style="fill:none;stroke:black;" points="492,389 492,365 "/>
<text text-anchor="middle" x="519" y="382">next: 5</text>
</g>
<!-- el2&#45;&gt;el3 -->
<g id="edge12" class="edge"><title>el2&#45;&gt;el3</title>
<path style="fill:none;stroke:red;" d="M438,305C438,312 438,322 438,331"/>
<polygon style="fill:red;stroke:red;" points="442,331 438,341 435,331 442,331"/>
</g>
<!-- el3&#45;&gt;el2 -->
<g id="edge18" class="edge"><title>el3&#45;&gt;el2</title>
<path style="fill:none;stroke:blue;" d="M357,365C357,353 357,333 357,315"/>
<polygon style="fill:blue;stroke:blue;" points="354,315 357,305 361,315 354,315"/>
</g>
<!-- el5 -->
<g id="node6" class="node"><title>el5</title>
<polygon style="fill:none;stroke:black;" points="410,473 628,473 628,425 410,425 410,473"/>
<text text-anchor="middle" x="465" y="442">pos: 5</text>
<polyline style="fill:none;stroke:black;" points="520,449 520,425 "/>
<text text-anchor="middle" x="574" y="442">ind: 5</text>
<polyline style="fill:none;stroke:black;" points="410,449 628,449 "/>
<text text-anchor="middle" x="438" y="466">prev: 3</text>
<polyline style="fill:none;stroke:black;" points="466,473 466,449 "/>
<text text-anchor="middle" x="519" y="466">value: 7.000000</text>
<polyline style="fill:none;stroke:black;" points="573,473 573,449 "/>
<text text-anchor="middle" x="600" y="466">next: 8</text>
</g>
<!-- el3&#45;&gt;el5 -->
<g id="edge16" class="edge"><title>el3&#45;&gt;el5</title>
<path style="fill:none;stroke:red;" d="M519,389C519,396 519,406 519,415"/>
<polygon style="fill:red;stroke:red;" points="523,415 519,425 516,415 523,415"/>
</g>
<!-- el5&#45;&gt;el3 -->
<g id="edge22" class="edge"><title>el5&#45;&gt;el3</title>
<path style="fill:none;stroke:blue;" d="M438,449C438,437 438,417 438,399"/>
<polygon style="fill:blue;stroke:blue;" points="435,399 438,389 442,399 435,399"/>
</g>
<!-- el8 -->
<g id="node7" class="node"><title>el8</title>
<polygon style="fill:none;stroke:black;" points="489,557 714,557 714,509 489,509 489,557"/>
<text text-anchor="middle" x="546" y="526">pos: 6</text>
<polyline style="fill:none;stroke:black;" points="603,533 603,509 "/>
<text text-anchor="middle" x="658" y="526">ind: 8</text>
<polyline style="fill:none;stroke:black;" points="489,533 714,533 "/>
<text text-anchor="middle" x="517" y="550">prev: 5</text>
<polyline style="fill:none;stroke:black;" points="545,557 545,533 "/>
<text text-anchor="middle" x="602" y="550">value: 10.000000</text>
<polyline style="fill:none;stroke:black;" points="659,557 659,533 "/>
<text text-anchor="middle" x="686" y="550">next: 9</text>
</g>
<!-- el5&#45;&gt;el8 -->
<g id="edge20" class="edge"><title>el5&#45;&gt;el8</title>
<path style="fill:none;stroke:red;" d="M600,473C600,480 600,490 600,499"/>
<polygon style="fill:red;stroke:red;" points="604,499 600,509 597,499 604,499"/>
</g>
<!-- el8&#45;&gt;el5 -->
<g id="edge26" class="edge"><title>el8&#45;&gt;el5</title>
<path style="fill:none;stroke:blue;" d="M517,533C518,521 518,501 519,483"/>
<polygon style="fill:blue;stroke:blue;" points="516,483 519,473 523,483 516,483"/>
</g>
<!-- el9 -->
<g id="node8" class="node"><title>el9</title>
<polygon style="fill:none;stroke:black;" points="573,641 797,641 797,593 573,593 573,641"/>
<text text-anchor="middle" x="629" y="610">pos: 7</text>
<polyline style="fill:none;stroke:black;" points="686,617 686,593 "/>
<text text-anchor="middle" x="741" y="610">ind: 9</text>
<polyline style="fill:none;stroke:black;" points="573,617 797,617 "/>
<text text-anchor="middle" x="601" y="634">prev: 8</text>
<polyline style="fill:none;stroke:black;" points="629,641 629,617 "/>
<text text-anchor="middle" x="685" y="634">value: 11.000000</text>
<polyline style="fill:none;stroke:black;" points="742,641 742,617 "/>
<text text-anchor="middle" x="769" y="634">next: 0</text>
</g>
<!-- el8&#45;&gt;el9 -->
<g id="edge24" class="edge"><title>el8&#45;&gt;el9</title>
<path style="fill:none;stroke:red;" d="M686,557C686,564 686,574 686,583"/>
<polygon style="fill:red;stroke:red;" points="690,583 686,593 683,583 690,583"/>
</g>
<!-- el9&#45;&gt;el8 -->
<g id="edge28" class="edge"><title>el9&#45;&gt;el8</title>
<path style="fill:none;stroke:blue;" d="M601,617C601,605 601,585 601,567"/>
<polygon style="fill:blue;stroke:blue;" points="598,567 601,557 605,567 598,567"/>
</g>
</g>
</svg>
